<svg width="30" height="30" viewBox="0 0 30 30" fill="none" xmlns="http://www.w3.org/2000/svg">
<circle cx="15" cy="15" r="14" stroke="#FB5012" stroke-width="2"/>
<path d="M21.0303 17.7289L18.9094 17.4868C18.4 17.4283 17.899 17.6037 17.5399 17.9627L16.0035 19.4992C13.6404 18.2967 11.7032 16.3678 10.5008 13.9964L12.0455 12.4516C12.4046 12.0926 12.58 11.5916 12.5215 11.0822L12.2793 8.97797C12.1791 8.13461 11.4694 7.5 10.6177 7.5H9.1731C8.22953 7.5 7.44462 8.28491 7.50307 9.22848C7.94562 16.3595 13.6488 22.0543 20.7714 22.4969C21.715 22.5553 22.4999 21.7704 22.4999 20.8268V19.3822C22.5083 18.5389 21.8737 17.8291 21.0303 17.7289Z" fill="#FB5012"/>
</svg>
